<?xml version="1.0"?>
<svg xmlns="http://www.w3.org/2000/svg" id="Solid" viewBox="0 0 512 512" width="512" height="512"><path d="M217.376,200h77.248A24.039,24.039,0,0,0,272,184H240A24.039,24.039,0,0,0,217.376,200Z"/><path d="M240,168h8V43.614A309,309,0,0,0,169.6,200h31.2A40.067,40.067,0,0,1,240,168Z"/><path d="M169.676,312H342.324q1.458-7.957,2.5-16H167.172Q168.218,304.042,169.676,312Z"/><path d="M255.927,476.613l.073.074.073-.074A312.422,312.422,0,0,0,338.961,328H173.039A312.418,312.418,0,0,0,255.927,476.613ZM256,432a8,8,0,1,1,8-8A8,8,0,0,1,256,432Zm0-88a8,8,0,1,1-8,8A8,8,0,0,1,256,344Zm-43,1.753,43,34.4,43-34.4a8,8,0,0,1,10,12.494L268.807,390.4,293,409.753a8,8,0,0,1-10,12.494l-27-21.6-27,21.6a8,8,0,1,1-10-12.494L243.193,390.4,203,358.247a8,8,0,1,1,10-12.494Z"/><path d="M311.2,200h31.2A309,309,0,0,0,264,43.614V168h8A40.067,40.067,0,0,1,311.2,200Z"/><path d="M74.388,197.079,40.8,193.72a8.13,8.13,0,0,0-.823-.042,8,8,0,0,0-7.973,8v44.64a8,8,0,0,0,8.8,7.96l33.592-3.359A23.924,23.924,0,0,0,96,227.041V220.96A23.924,23.924,0,0,0,74.388,197.079Z"/><path d="M200,272V248H164.663a311.119,311.119,0,0,0,.846,32h35.867A23.885,23.885,0,0,1,200,272Z"/><path d="M472.027,193.678a8.159,8.159,0,0,0-.823.042l-33.593,3.359A23.924,23.924,0,0,0,416,220.96v6.081a23.924,23.924,0,0,0,21.611,23.88L471.2,254.28a8,8,0,0,0,8.8-7.96V201.68a8,8,0,0,0-7.973-8Z"/><path d="M400.312,216H111.688a40.807,40.807,0,0,1,.312,4.96v6.081a40.8,40.8,0,0,1-.312,4.959H400.312a40.8,40.8,0,0,1-.312-4.959V220.96A40.807,40.807,0,0,1,400.312,216Z"/><path d="M312,248v24a23.885,23.885,0,0,1-1.376,8h35.867a311.119,311.119,0,0,0,.846-32Z"/><path d="M288,280a8.009,8.009,0,0,0,8-8V248H216v24a8.009,8.009,0,0,0,8,8Z"/></svg>
