<?xml version="1.0" encoding="iso-8859-1"?>
<!-- Generator: Adobe Illustrator 19.0.0, SVG Export Plug-In . SVG Version: 6.00 Build 0)  -->
<svg version="1.1" id="Capa_1" xmlns="http://www.w3.org/2000/svg" xmlns:xlink="http://www.w3.org/1999/xlink" x="0px" y="0px"
	 viewBox="0 0 512 512" style="enable-background:new 0 0 512 512;" xml:space="preserve">
<g>
	<g>
		<polygon points="512,374.5 512,354.5 453.333,274.5 492,274.5 492,254.5 441.6,184.5 472,184.5 472,164.5 402,67.5 
			347.498,143.024 356,154.806 356,214.5 376,244.823 376,304.5 366.536,304.5 396,344.679 396,374.5 396,404.5 396,414.5 
			271,414.5 271,374.5 366,374.5 366,354.5 307.333,274.5 346,274.5 346,254.5 295.6,184.5 326,184.5 326,164.5 256,67.5 186,164.5 
			186,184.5 216.4,184.5 166,254.5 166,274.5 204.667,274.5 146,354.5 146,374.5 241,374.5 241,414.5 116,414.5 116,404.5 
			116,374.5 116,344.679 145.464,304.5 136,304.5 136,244.823 156,214.5 156,154.806 164.502,143.024 110,67.5 40,164.5 40,184.5 
			70.4,184.5 20,254.5 20,274.5 58.667,274.5 0,354.5 0,374.5 86,374.5 86,414.5 0,414.5 0,444.5 512,444.5 512,414.5 426,414.5 
			426,374.5 		"/>
	</g>
</g>
<g>
</g>
<g>
</g>
<g>
</g>
<g>
</g>
<g>
</g>
<g>
</g>
<g>
</g>
<g>
</g>
<g>
</g>
<g>
</g>
<g>
</g>
<g>
</g>
<g>
</g>
<g>
</g>
<g>
</g>
</svg>
