<svg id="Layer_1" enable-background="new 0 0 512.006 512.006" height="512" viewBox="0 0 512.006 512.006" width="512" xmlns="http://www.w3.org/2000/svg"><g><path d="m271.003 336.743v-147.625c22.352-5.962 38.868-26.374 38.868-50.579v-63.726c0-24.205-16.516-44.616-38.868-50.579v-24.234h-30v24.235c-22.352 5.962-38.868 26.374-38.868 50.579v63.726c0 24.205 16.516 44.616 38.868 50.579v147.625c5.787 9.463 10.804 19.415 15 29.758 4.196-10.344 9.213-20.296 15-29.759z"/><path d="m387.408 247.331 9.961-37.176c.032 0 .065.003.097.003 23.635 0 44.418-15.958 50.54-38.807l16.494-61.555c6.264-23.379-4.407-47.37-24.454-58.914l6.272-23.41-28.979-7.764-6.269 23.4c-.033 0-.065-.003-.098-.003-23.634 0-44.417 15.958-50.54 38.807l-16.493 61.555c-6.264 23.379 4.406 47.37 24.453 58.914l-15.79 58.929c9.28-4.721 19.006-8.788 29.137-12.117z"/><path d="m159.403 261.31-15.79-58.929c20.047-11.544 30.717-35.535 24.453-58.915l-16.494-61.555c-6.122-22.849-26.905-38.807-50.539-38.807-.033 0-.065.003-.098.003l-6.269-23.4-28.979 7.764 6.272 23.41c-20.047 11.544-30.718 35.535-24.454 58.915l16.495 61.554c6.122 22.848 26.904 38.807 50.539 38.808h.002c.032 0 .064-.003.096-.003l9.961 37.176 5.669 1.863c10.13 3.328 19.856 7.395 29.136 12.116z"/><path d="m.003 482.006v30h512v-30h-56.741v-16.968c0-25.861 5.242-50.995 15.581-74.702l16.331-37.449c-30.167 10.557-55.996 29.735-74.883 55.655-15.933 21.866-25.784 46.965-28.96 73.463h-30.182-.946v-53.45c0-36.578 9.832-72.559 28.433-104.053l31.782-53.813-21.313 7.004c-71.836 23.606-120.102 90.271-120.102 165.887v.851 37.575h-30v-37.575-.851c0-75.616-48.266-142.281-120.102-165.887l-21.313-7.004 31.782 53.813c18.601 31.494 28.433 67.475 28.433 104.053v53.45h-.946-30.182c-3.176-26.498-13.027-51.597-28.96-73.463-18.887-25.92-44.716-45.099-74.883-55.655l16.331 37.448c10.339 23.708 15.581 48.841 15.581 74.702v16.968h-56.741z"/></g></svg>